<svg width="160" height="58" viewBox="0 0 160 58" fill="none" xmlns="http://www.w3.org/2000/svg">
<g filter="url(#filter0_d)">
<rect x="4" width="152" height="50" rx="25" fill="white"/>
</g>
<path d="M52.6581 18.4H58.3821C59.7501 18.4 60.9561 18.664 62.0001 19.192C63.0561 19.708 63.8721 20.44 64.4481 21.388C65.0361 22.336 65.3301 23.44 65.3301 24.7C65.3301 25.96 65.0361 27.064 64.4481 28.012C63.8721 28.96 63.0561 29.698 62.0001 30.226C60.9561 30.742 59.7501 31 58.3821 31H52.6581V18.4ZM58.2381 28.606C59.4981 28.606 60.5001 28.258 61.2441 27.562C62.0001 26.854 62.3781 25.9 62.3781 24.7C62.3781 23.5 62.0001 22.552 61.2441 21.856C60.5001 21.148 59.4981 20.794 58.2381 20.794H55.5741V28.606H58.2381ZM73.6312 31.216C72.3232 31.216 71.1412 30.934 70.0852 30.37C69.0412 29.806 68.2192 29.032 67.6192 28.048C67.0312 27.052 66.7372 25.936 66.7372 24.7C66.7372 23.464 67.0312 22.354 67.6192 21.37C68.2192 20.374 69.0412 19.594 70.0852 19.03C71.1412 18.466 72.3232 18.184 73.6312 18.184C74.9392 18.184 76.1152 18.466 77.1592 19.03C78.2032 19.594 79.0252 20.374 79.6252 21.37C80.2252 22.354 80.5252 23.464 80.5252 24.7C80.5252 25.936 80.2252 27.052 79.6252 28.048C79.0252 29.032 78.2032 29.806 77.1592 30.37C76.1152 30.934 74.9392 31.216 73.6312 31.216ZM73.6312 28.732C74.3752 28.732 75.0472 28.564 75.6472 28.228C76.2472 27.88 76.7152 27.4 77.0512 26.788C77.3992 26.176 77.5732 25.48 77.5732 24.7C77.5732 23.92 77.3992 23.224 77.0512 22.612C76.7152 22 76.2472 21.526 75.6472 21.19C75.0472 20.842 74.3752 20.668 73.6312 20.668C72.8872 20.668 72.2152 20.842 71.6152 21.19C71.0152 21.526 70.5412 22 70.1932 22.612C69.8572 23.224 69.6892 23.92 69.6892 24.7C69.6892 25.48 69.8572 26.176 70.1932 26.788C70.5412 27.4 71.0152 27.88 71.6152 28.228C72.2152 28.564 72.8872 28.732 73.6312 28.732ZM94.2727 18.4V31H91.8787L85.5967 23.35V31H82.7167V18.4H85.1287L91.3927 26.05V18.4H94.2727ZM107.01 28.66V31H97.2538V18.4H106.776V20.74H100.152V23.476H106.002V25.744H100.152V28.66H107.01Z" fill="black"/>
<defs>
<filter id="filter0_d" x="0" y="0" width="160" height="58" filterUnits="userSpaceOnUse" color-interpolation-filters="sRGB">
<feFlood flood-opacity="0" result="BackgroundImageFix"/>
<feColorMatrix in="SourceAlpha" type="matrix" values="0 0 0 0 0 0 0 0 0 0 0 0 0 0 0 0 0 0 127 0" result="hardAlpha"/>
<feOffset dy="4"/>
<feGaussianBlur stdDeviation="2"/>
<feColorMatrix type="matrix" values="0 0 0 0 0 0 0 0 0 0 0 0 0 0 0 0 0 0 0.25 0"/>
<feBlend mode="normal" in2="BackgroundImageFix" result="effect1_dropShadow"/>
<feBlend mode="normal" in="SourceGraphic" in2="effect1_dropShadow" result="shape"/>
</filter>
</defs>
</svg>
