<svg width="16" height="16" viewBox="0 0 16 16" fill="none" xmlns="http://www.w3.org/2000/svg">
<path d="M12.56 2.29647L11.11 3.66118C11.9912 4.16054 12.7203 4.86574 13.2266 5.70838C13.733 6.55102 13.9994 7.50252 14 8.47059C14 9.96828 13.3679 11.4046 12.2426 12.4637C11.1174 13.5227 9.5913 14.1176 8 14.1176C6.4087 14.1176 4.88258 13.5227 3.75736 12.4637C2.63214 11.4046 2 9.96828 2 8.47059C2 6.42824 3.16 4.64941 4.88 3.65176L3.44 2.29647C2.3779 2.98616 1.50984 3.90849 0.910579 4.98404C0.311319 6.0596 -0.00117702 7.25613 3.33137e-06 8.47059C3.33137e-06 10.4675 0.842858 12.3826 2.34315 13.7947C3.84344 15.2067 5.87827 16 8 16C10.1217 16 12.1566 15.2067 13.6569 13.7947C15.1571 12.3826 16 10.4675 16 8.47059C16 5.91059 14.64 3.65176 12.56 2.29647ZM9 0H7V9.41177H9" 
fill="white"/>
</svg>
