<svg width="100" height="100" viewBox="0 0 100 100" fill="none" xmlns="http://www.w3.org/2000/svg">
<path d="M50.0461 8.00781C51.4268 8.00781 52.5461 6.8929 52.5461 5.51758C52.5461 4.14226 51.4268 3.02734 50.0461 3.02734C48.6654 3.02734 47.5461 4.14226 47.5461 5.51758C47.5461 6.8929 48.6654 8.00781 50.0461 8.00781Z" fill="#FFAE3A"/>
<path d="M50.0464 96.5332C51.4271 96.5332 52.5464 95.4183 52.5464 94.043C52.5464 92.6677 51.4271 91.5527 50.0464 91.5527C48.6657 91.5527 47.5464 92.6677 47.5464 94.043C47.5464 95.4183 48.6657 96.5332 50.0464 96.5332Z" fill="#FFAE3A"/>
<path d="M91.9847 49.7803C91.9847 51.1556 93.104 52.2705 94.4847 52.2705C95.8655 52.2705 96.9847 51.1556 96.9847 49.7803C96.9847 48.405 95.8655 47.29 94.4847 47.29C93.104 47.29 91.9847 48.405 91.9847 49.7803Z" fill="#FFAE3A"/>
<path d="M3.11756 49.7803C3.11756 51.1556 4.23685 52.2705 5.61756 52.2705C6.99827 52.2705 8.11755 51.1556 8.11755 49.7803C8.11755 48.405 6.99827 47.29 5.61756 47.29C4.23685 47.29 3.11756 48.405 3.11756 49.7803Z" fill="#FFAE3A"/>
<path d="M71.0149 13.6027C72.2106 14.2904 73.7396 13.8823 74.4299 12.6912C75.1203 11.5002 74.7106 9.97718 73.5149 9.28953C72.3192 8.60188 70.7902 9.00997 70.0999 10.201C69.4095 11.3921 69.8192 12.9151 71.0149 13.6027Z" fill="#FFAE3A"/>
<path d="M26.5816 90.2688C27.7773 90.9564 29.3063 90.5484 29.9966 89.3573C30.687 88.1662 30.2773 86.6432 29.0816 85.9556C27.8858 85.2679 26.3569 85.676 25.6665 86.8671C24.9762 88.0581 25.3858 89.5811 26.5816 90.2688Z" fill="#FFAE3A"/>
<path d="M86.3628 70.662C85.6724 71.853 86.0821 73.376 87.2778 74.0637C88.4735 74.7513 90.0025 74.3433 90.6929 73.1522C91.3832 71.9611 90.9735 70.4381 89.7778 69.7505C88.5821 69.0628 87.0531 69.4709 86.3628 70.662Z" fill="#FFAE3A"/>
<path d="M9.39485 26.4011C8.70367 27.5917 9.11304 29.1137 10.3092 29.8007C11.5054 30.4876 13.0354 30.0793 13.7265 28.8887C14.4177 27.6981 14.0083 26.1761 12.8122 25.4891C11.616 24.8022 10.086 25.2105 9.39485 26.4011Z" fill="#FFAE3A"/>
<path d="M86.3609 28.8961C87.0513 30.0872 88.5802 30.4953 89.776 29.8076C90.9717 29.1199 91.3814 27.5969 90.691 26.4059C90.0007 25.2148 88.4717 24.8067 87.276 25.4944C86.0802 26.1821 85.6706 27.7051 86.3609 28.8961Z" fill="#FFAE3A"/>
<path d="M9.39508 73.1589C10.0854 74.35 11.6144 74.7581 12.8101 74.0704C14.0058 73.3827 14.4155 71.8597 13.7252 70.6686C13.0349 69.4775 11.5059 69.0694 10.3102 69.7571C9.11444 70.4448 8.70474 71.9678 9.39508 73.1589Z" fill="#FFAE3A"/>
<path d="M71.0174 85.9529C69.8217 86.6406 69.412 88.1636 70.1024 89.3546C70.7927 90.5457 72.3217 90.9538 73.5174 90.2661C74.7132 89.5785 75.1228 88.0555 74.4325 86.8644C73.7421 85.6733 72.2132 85.2652 71.0174 85.9529Z" fill="#FFAE3A"/>
<path d="M26.5811 9.28603C25.3849 9.97295 24.9755 11.495 25.6667 12.6856C26.3579 13.8762 27.8879 14.2845 29.084 13.5975C30.2802 12.9106 30.6896 11.3886 29.9984 10.198C29.3072 9.00742 27.7772 8.59911 26.5811 9.28603Z" fill="#FFAE3A"/>
<path fill-rule="evenodd" clip-rule="evenodd" d="M70.8216 51.3672H28.0409L20.0195 61.1328H78.8429L70.8216 51.3672Z" fill="#FFB224"/>
<path fill-rule="evenodd" clip-rule="evenodd" d="M65.4731 77.9297H33.3876L25.3662 66.211H73.4945L65.4731 77.9297Z" fill="#E99C00"/>
<path fill-rule="evenodd" clip-rule="evenodd" d="M68.1469 52.3438H30.7138L25.3662 60.1562H73.4945L68.1469 52.3438Z" fill="#FFE47C"/>
<path fill-rule="evenodd" clip-rule="evenodd" d="M30.7138 52.3438L33.7887 60.1562H25.3662L30.7138 52.3438Z" fill="#FFC966"/>
<path fill-rule="evenodd" clip-rule="evenodd" d="M68.1507 52.3438L65.0758 60.1562H73.4983L68.1507 52.3438Z" fill="#FFC966"/>
<path fill-rule="evenodd" clip-rule="evenodd" d="M32.5884 34.8382C32.5884 34.8382 25.4537 52.0636 43.1266 60.1544H54.7867C54.7867 60.1544 62.6779 58.4673 67.6864 47.2756C67.6864 47.2756 64.1158 51.3487 61.6079 51.9194C61.6079 51.9194 68.8748 43.3668 63.1377 33.1498C63.1377 33.1498 61.5545 30.0132 63.1377 26.1475C63.1377 26.1475 59.4753 28.4507 61.3138 36.6943C61.3138 36.6943 57.057 25.8465 59.4511 19.7021C59.4511 19.7021 55.1942 20.8335 53.8138 25.6592C53.8138 25.6592 57.4491 15.6902 45.7256 7.00684C45.7256 7.00684 52.874 17.7085 45.7256 24.4873C45.7256 24.4873 44.1158 22.7215 45.9217 19.5068C45.9217 19.5068 35.2923 25.4559 37.3923 39.624C37.3923 39.624 35.0962 40.6238 32.5884 34.8382Z" fill="#A82900"/>
<path fill-rule="evenodd" clip-rule="evenodd" d="M48.3846 58.4534C48.3846 58.4534 36.9056 54.5717 36.9141 43.6096C36.9141 43.6096 38.2128 45.7175 42.7964 45.9534C42.7964 45.9534 39.1932 33.2175 46.4239 28.3752C46.4239 28.3752 45.4023 33.543 47.5023 36.2854C47.5023 36.2854 47.3631 29.0508 51.4238 25.0549C51.4238 25.0549 51.0233 30.2589 53.7768 33.3413C53.7768 33.3413 53.9317 30.8738 55.6885 29.1565C55.6885 29.1565 56.5258 35.4799 58.4827 38.9221C60.6153 42.6736 59.0951 44.7288 58.2866 47.7315C58.2777 47.7648 60.8598 47.2475 63.4827 38.9221C63.4827 38.9221 63.1474 49.5261 57.7964 55.426C57.7964 55.426 60.2389 54.8295 62.3062 53.374C62.3062 53.374 55.4023 60.3008 48.3846 58.4534Z" fill="#FF6700"/>
<path fill-rule="evenodd" clip-rule="evenodd" d="M47.2527 49.3896C47.2527 49.3896 45.91 40.2346 49.4287 36.5967C49.4287 36.5967 48.1593 43.2293 51.6645 45.9717C51.6645 45.9717 53.4534 43.2293 52.5468 40.5029C52.5468 40.5029 56.6233 46.159 54.4586 49.9756C54.4586 49.9756 55.8717 50.1955 57.1546 48.8037C57.1546 48.8037 56.4599 55.4038 50.1939 56.2256C50.1939 56.2256 45.6102 55.2736 44.3115 49.3896C44.3115 49.3896 46.7867 51.2371 47.2527 49.3896Z" fill="#FFEB1D"/>
<path d="M78.8431 61.0352H20.0195V66.3086H78.8431V61.0352Z" fill="#DB8500"/>
</svg>
